<?xml version="1.0" encoding="UTF-8" standalone="no"?>
<!DOCTYPE svg PUBLIC "-//W3C//DTD SVG 1.1//EN" "http://www.w3.org/Graphics/SVG/1.1/DTD/svg11.dtd">
<svg width="100%" height="100%" viewBox="0 0 2048 513" version="1.1" xmlns="http://www.w3.org/2000/svg" xmlns:xlink="http://www.w3.org/1999/xlink" xml:space="preserve" xmlns:serif="http://www.serif.com/" style="fill-rule:evenodd;clip-rule:evenodd;stroke-linecap:square;stroke-miterlimit:2;">
    <g transform="matrix(1,0,0,1,0,-5068)">
        <g id="logo" transform="matrix(1.00798,0,0,0.251208,-18.5062,5068.48)">
            <rect x="18.36" y="0.57" width="2031.8" height="2038.15" style="fill:none;"/>
            <g id="logo1" serif:id="logo">
                <g id="iRace" transform="matrix(12.3744,0,0,49.6525,-1857.16,-6215.49)">
                    <path d="M236.094,144.329L236.094,153.555L231.408,153.555L231.408,144.329" style="fill:rgb(3,4,5);fill-rule:nonzero;"/>
                    <path d="M231.408,143.367L231.408,140.67L236.094,140.67L236.094,143.374" style="fill:rgb(3,4,5);fill-rule:nonzero;"/>
                    <path d="M231.408,139.498L228.702,134.813L247.223,134.813C250.736,134.813 252.494,136.569 252.494,140.084C252.494,142.349 251.764,143.883 250.303,144.688L254.075,151.212L248.675,151.212L245.29,145.356L241.951,145.356L241.951,151.212L237.266,153.555L237.266,140.67L247.223,140.67C247.613,140.67 247.808,140.475 247.808,140.084C247.808,139.694 247.613,139.498 247.223,139.498L231.408,139.498Z" style="fill:rgb(3,4,5);fill-rule:nonzero;"/>
                    <path d="M265.473,146.527L262.626,141.607L257.074,151.212L251.674,151.212L262.626,132.247L273.579,151.212L258.034,151.212L260.739,146.527L265.473,146.527Z" style="fill:rgb(3,4,5);fill-rule:nonzero;"/>
                    <path d="M279.612,134.813L290.154,134.813L287.448,139.498L279.612,139.498C277.27,139.498 276.098,140.67 276.098,143.013C276.098,145.356 277.27,146.527 279.612,146.527L285.082,146.527L282.376,151.212L279.612,151.212C274.146,151.212 271.412,148.48 271.412,143.013C271.412,137.546 274.146,134.813 279.612,134.813Z" style="fill:rgb(3,4,5);fill-rule:nonzero;"/>
                    <path d="M302.653,134.813L299.947,139.498L290.94,139.498L290.94,140.67L299.269,140.67L296.563,145.356L290.94,145.356L290.94,146.527L295.883,146.527L293.177,151.212L286.254,151.212L286.254,134.813L302.653,134.813Z" style="fill:rgb(3,4,5);fill-rule:nonzero;"/>
                </g>
                <g id="_.talsma.ca" serif:id=".talsma.ca" transform="matrix(12.1676,0,0,48.8227,-1796.69,-6123.23)">
                    <path d="M273.944,160L275.24,160L275.24,154.283L273.478,154.283L272.382,156.181L271.285,154.283L269.895,154.283L270.097,155.442L269.524,155.441L269.524,160L270.819,160L270.819,156.026L272.009,158.109L272.755,158.109L273.944,156.026L273.944,160Z" style="fill:rgb(3,4,5);fill-rule:nonzero;"/>
                    <path d="M252.058,159.98L253.355,159.98L253.355,155.56L255.355,155.56L256.104,154.264L249.297,154.264L250.046,155.56L252.058,155.56L252.058,159.98Z" style="fill:rgb(3,4,5);fill-rule:nonzero;"/>
                    <path d="M255.393,160L260.875,160L260.59,159.666L257.471,154.266L256.644,154.266L253.522,159.674L253.343,159.98L254.825,160L257.058,156.14L258.54,158.703L256.142,158.703L255.393,160Z" style="fill:rgb(3,4,5);fill-rule:nonzero;"/>
                    <path d="M260.484,160L264.732,160L265.149,158.703L261.78,158.703L261.78,154.282L260.484,154.282L260.484,160Z" style="fill:rgb(3,4,5);fill-rule:nonzero;"/>
                    <path d="M264.226,160L266.999,160C268.195,160 268.752,159.443 268.752,158.246C268.752,157.051 268.195,156.493 266.999,156.493L265.231,156.493C264.953,156.493 264.774,156.314 264.774,156.036C264.774,155.758 264.953,155.579 265.231,155.579L270.176,155.581L270.176,154.283L265.231,154.282C264.034,154.282 263.477,154.84 263.477,156.036C263.477,157.233 264.034,157.789 265.231,157.789L266.999,157.789C267.276,157.789 267.456,157.969 267.456,158.246C267.456,158.525 267.276,158.703 266.999,158.703L264.975,158.703L264.226,160Z" style="fill:rgb(3,4,5);fill-rule:nonzero;"/>
                    <path d="M277.206,160L282.596,160L279.283,154.266L278.457,154.266L275.24,159.836L275.24,160L276.639,160L278.87,156.14L280.355,158.703L277.955,158.703L277.206,160Z" style="fill:rgb(3,4,5);fill-rule:nonzero;"/>
                    <rect x="283.112" y="158.703" width="1.296" height="1.297" style="fill:rgb(3,4,5);fill-rule:nonzero;"/>
                    <rect x="249.894" y="158.703" width="1.297" height="1.297" style="fill:rgb(3,4,5);fill-rule:nonzero;"/>
                    <path d="M287.684,154.282C285.733,154.282 284.825,155.192 284.825,157.142C284.825,159.092 285.733,160 287.684,160L288.521,160L289.27,158.703L287.684,158.703C286.677,158.703 286.122,158.149 286.122,157.142C286.122,156.134 286.677,155.579 287.684,155.579L292.041,155.582L292.791,154.282L287.684,154.282Z" style="fill:rgb(3,4,5);fill-rule:nonzero;"/>
                    <path d="M291.103,160L296.493,160L293.19,154.282L292.464,154.282L291.7,155.365L291.459,155.818L289.043,160L290.535,160L292.768,156.14L294.251,158.703L291.852,158.703L291.103,160Z" style="fill:rgb(3,4,5);fill-rule:nonzero;"/>
                </g>
            </g>
            <g id="car" transform="matrix(-12.3744,0,0,49.6525,2894.11,-6286.53)">
                <path d="M216.441,147.299C213.374,146.116 210.027,145.159 206.998,143.874C206.682,143.729 206.417,143.834 206.078,143.842C203.636,143.912 201.586,144.18 197.817,144.323C197.499,144.334 197.485,143.866 197.163,143.972C196.776,144.134 197.123,144.467 196.393,144.51C195.821,144.478 195.268,144.621 194.693,144.732C194.669,144.64 194.64,144.534 194.608,144.415C194.864,144.548 195.103,144.221 194.78,144.126C194.158,143.94 194.066,144.018 194.218,144.643C194.434,145.233 191.27,144.91 190.816,144.981C188.792,144.491 190.241,143.793 186.966,143.777C186.284,143.736 186.937,142.806 186.179,142.679C186.014,142.587 185.641,142.679 185.644,142.427C185.638,141.892 185.627,141.354 185.619,140.818C185.616,140.612 185.546,140.533 185.346,140.501C185.054,140.458 184.634,140.279 184.531,140.683C183.612,142.933 184.429,142.395 182.062,142.798C179.65,143.26 177.401,144.461 174.951,144.683C174.597,144.683 173.404,144.794 173.341,144.816C174.902,145.438 176.006,146.963 176.006,148.746C176.006,149.636 175.733,150.458 175.262,151.14C175.281,151.375 175.47,151.808 175.706,151.843C184.404,151.843 193.114,151.846 201.813,151.843C202.222,151.74 202.289,151.015 201.808,150.944C201.143,150.907 200.48,150.95 199.812,150.94C200.098,150.342 200.431,149.769 200.742,149.181C200.885,149.029 201.153,149.109 201.345,149.063C201.602,142.103 211.242,144.034 209.365,150.961L215.997,150.961L216.035,150.403C216.027,149.784 216.379,147.988 215.227,148.875C214.82,149.344 214.545,149.992 213.856,150.038C213.871,150.023 212.468,148.892 211.756,148.319C212.697,148.256 213.598,148.194 214.534,148.132C215.029,148.04 217.147,148.265 216.441,147.299Z" style="fill:rgb(3,4,5);fill-rule:nonzero;"/>
                <path d="M168.824,151.024L168.592,146.818C168.592,146.818 168.448,145.951 168.419,145.61C168.405,145.433 168.381,145.248 168.397,145.072C168.389,144.402 168.943,143.899 168.97,143.241C168.876,142.76 169.192,141.61 168.505,141.565C167.916,141.531 167.326,141.502 166.736,141.478C166.409,141.464 166.309,141.529 166.192,141.829C166.098,143.533 166.222,145.262 166.209,146.974C166.249,147.174 166.168,147.531 166.425,147.585C166.796,147.564 166.98,147.524 166.958,147.978C166.352,147.631 165.662,147.775 164.986,147.736C164.88,147.736 164.775,147.767 164.67,147.782L164.715,148.846C164.715,149.116 165.008,149.176 165.205,149.309C166.066,149.793 166.855,150.452 167.767,150.823C168.118,150.897 168.824,151.024 168.824,151.024Z" style="fill:rgb(3,4,5);fill-rule:nonzero;"/>
                <path d="M171.659,146.39C170.356,146.39 169.297,147.447 169.297,148.751C169.297,150.055 170.356,151.113 171.659,151.113C172.962,151.113 174.021,150.055 174.021,148.751C174.021,147.447 172.962,146.39 171.659,146.39ZM171.659,145.118C169.654,145.118 168.026,146.746 168.026,148.751C168.026,150.756 169.654,152.384 171.659,152.384C173.664,152.384 175.292,150.756 175.292,148.751C175.292,146.746 173.664,145.118 171.659,145.118Z" style="fill:rgb(3,4,5);"/>
                <path d="M205.454,146.39C204.15,146.39 203.092,147.447 203.092,148.751C203.092,150.055 204.15,151.113 205.454,151.113C206.757,151.113 207.816,150.055 207.816,148.751C207.816,147.447 206.757,146.39 205.454,146.39ZM205.454,145.118C203.449,145.118 201.821,146.746 201.821,148.751C201.821,150.756 203.449,152.384 205.454,152.384C207.459,152.384 209.086,150.756 209.086,148.751C209.086,146.746 207.459,145.118 205.454,145.118Z" style="fill:rgb(3,4,5);"/>
            </g>
            <g id="divider" transform="matrix(12.3744,0,0,49.6525,-1857.16,-6228.89)">
                <rect x="223.956" y="134.905" width="0.08" height="20.137" style="fill:none;stroke:rgb(3,4,5);stroke-width:0.63px;"/>
            </g>
        </g>
    </g>
</svg>
